Acolyte-Regular.ufo
<glyph name="space" format="2">
  <advance width="632"/>
  <unicode hex="0020"/>
  <outline>
    <contour>
      <point x="242" y="407" type="curve" smooth="yes"/>
      <point x="248" y="407"/>
      <point x="253" y="412"/>
      <point x="253" y="418" type="curve" smooth="yes"/>
      <point x="253" y="424"/>
      <point x="248" y="429"/>
      <point x="242" y="429" type="curve" smooth="yes"/>
      <point x="236" y="429"/>
      <point x="231" y="424"/>
      <point x="231" y="418" type="curve" smooth="yes"/>
      <point x="231" y="412"/>
      <point x="236" y="407"/>
    </contour>
  </outline>
</glyph>
<glyph name="period" format="2">
  <advance width="632"/>
  <unicode hex="002E"/>
  <outline>
    <contour>
      <point x="243" y="407" type="curve" smooth="yes"/>
      <point x="249" y="407"/>
      <point x="254" y="412"/>
      <point x="254" y="418" type="curve" smooth="yes"/>
      <point x="254" y="424"/>
      <point x="249" y="429"/>
      <point x="243" y="429" type="curve" smooth="yes"/>
      <point x="237" y="429"/>
      <point x="232" y="424"/>
      <point x="232" y="418" type="curve" smooth="yes"/>
      <point x="232" y="412"/>
      <point x="237" y="407"/>
    </contour>
  </outline>
</glyph>
<glyph name="D" format="2">
  <advance width="743"/>
  <unicode hex="0044"/>
  <outline>
    <contour>
      <point x="380" y="30" type="move"/>
      <point x="284" y="30" type="line" smooth="yes"/>
      <point x="252" y="30"/>
      <point x="247" y="36"/>
      <point x="247" y="71" type="curve" smooth="yes"/>
      <point x="247" y="673" type="line"/>
      <point x="380" y="673" type="line"/>
      <point x="527" y="673"/>
      <point x="578" y="533"/>
      <point x="578" y="372" type="curve" smooth="yes"/>
      <point x="578" y="189"/>
      <point x="530" y="30"/>
      <point x="380" y="30" type="curve"/>
    </contour>
    <contour>
      <point x="380" y="0" type="move"/>
      <point x="578" y="0"/>
      <point x="708" y="155"/>
      <point x="708" y="362" type="curve" smooth="yes"/>
      <point x="708" y="519"/>
      <point x="598" y="700"/>
      <point x="380" y="700" type="curve"/>
      <point x="33" y="700" type="line"/>
      <point x="33" y="686" type="line"/>
      <point x="97" y="672" type="line" smooth="yes"/>
      <point x="125" y="666"/>
      <point x="133" y="650"/>
      <point x="133" y="613" type="curve" smooth="yes"/>
      <point x="133" y="87" type="line" smooth="yes"/>
      <point x="133" y="50"/>
      <point x="125" y="34"/>
      <point x="97" y="28" type="curve" smooth="yes"/>
      <point x="33" y="14" type="line"/>
      <point x="33" y="0" type="line"/>
      <point x="380" y="0" type="line"/>
    </contour>
  </outline>
</glyph>
<glyph name="H" format="2">
  <advance width="884"/>
  <unicode hex="0048"/>
  <outline>
    <contour>
      <point x="617" y="362" type="line"/>
      <point x="617" y="337" type="line"/>
      <point x="267" y="337" type="line"/>
      <point x="267" y="362" type="line"/>
    </contour>
    <contour>
      <point x="281" y="87" type="line" smooth="yes"/>
      <point x="281" y="50"/>
      <point x="289" y="33"/>
      <point x="317" y="28" type="curve" smooth="yes"/>
      <point x="398" y="14" type="line"/>
      <point x="398" y="0" type="line"/>
      <point x="50" y="0" type="line"/>
      <point x="50" y="14" type="line"/>
      <point x="131" y="28" type="line" smooth="yes"/>
      <point x="159" y="33"/>
      <point x="167" y="50"/>
      <point x="167" y="87" type="curve" smooth="yes"/>
      <point x="167" y="613" type="line" smooth="yes"/>
      <point x="167" y="650"/>
      <point x="159" y="667"/>
      <point x="131" y="672" type="curve" smooth="yes"/>
      <point x="50" y="686" type="line"/>
      <point x="50" y="700" type="line"/>
      <point x="398" y="700" type="line"/>
      <point x="398" y="686" type="line"/>
      <point x="317" y="672" type="line" smooth="yes"/>
      <point x="289" y="667"/>
      <point x="281" y="650"/>
      <point x="281" y="613" type="curve" smooth="yes"/>
    </contour>
    <contour>
      <point x="717" y="87" type="line" smooth="yes"/>
      <point x="717" y="50"/>
      <point x="725" y="33"/>
      <point x="753" y="28" type="curve" smooth="yes"/>
      <point x="834" y="14" type="line"/>
      <point x="834" y="0" type="line"/>
      <point x="486" y="0" type="line"/>
      <point x="486" y="14" type="line"/>
      <point x="567" y="28" type="line" smooth="yes"/>
      <point x="595" y="33"/>
      <point x="603" y="50"/>
      <point x="603" y="87" type="curve" smooth="yes"/>
      <point x="603" y="613" type="line" smooth="yes"/>
      <point x="603" y="650"/>
      <point x="595" y="667"/>
      <point x="567" y="672" type="curve" smooth="yes"/>
      <point x="486" y="686" type="line"/>
      <point x="486" y="700" type="line"/>
      <point x="834" y="700" type="line"/>
      <point x="834" y="686" type="line"/>
      <point x="753" y="672" type="line" smooth="yes"/>
      <point x="725" y="667"/>
      <point x="717" y="650"/>
      <point x="717" y="613" type="curve" smooth="yes"/>
    </contour>
  </outline>
</glyph>
<glyph name="O" format="2">
  <advance width="739"/>
  <unicode hex="004F"/>
  <outline>
    <contour>
      <point x="369" y="16" type="curve"/>
      <point x="210" y="16"/>
      <point x="162" y="183"/>
      <point x="162" y="374" type="curve" smooth="yes"/>
      <point x="162" y="539"/>
      <point x="218" y="687"/>
      <point x="369" y="687" type="curve"/>
      <point x="520" y="687"/>
      <point x="575" y="539"/>
      <point x="575" y="374" type="curve" smooth="yes"/>
      <point x="575" y="183"/>
      <point x="527" y="16"/>
    </contour>
    <contour>
      <point x="369" y="714" type="curve"/>
      <point x="142" y="714"/>
      <point x="30" y="526"/>
      <point x="30" y="365" type="curve" smooth="yes"/>
      <point x="30" y="147"/>
      <point x="163" y="-13"/>
      <point x="369" y="-13" type="curve"/>
      <point x="575" y="-13"/>
      <point x="709" y="147"/>
      <point x="709" y="365" type="curve" smooth="yes"/>
      <point x="709" y="526"/>
      <point x="595" y="714"/>
    </contour>
  </outline>
</glyph>
<glyph name="a" format="2">
  <advance width="441"/>
  <unicode hex="0061"/>
  <guideline x="138" y="-24" angle="0" identifier="swmnzddVtZ"/>
  <guideline x="430" y="252" angle="90" identifier="p5gdLTd5zV"/>
  <outline>
    <contour>
      <point x="395" y="105" type="curve" smooth="yes"/>
      <point x="395" y="354" type="line" smooth="yes"/>
      <point x="395" y="457"/>
      <point x="318" y="505"/>
      <point x="223" y="505" type="curve" smooth="yes"/>
      <point x="128" y="505"/>
      <point x="51" y="440"/>
      <point x="51" y="383" type="curve" smooth="yes"/>
      <point x="51" y="343"/>
      <point x="73" y="314"/>
      <point x="114" y="313" type="curve" smooth="yes"/>
      <point x="168" y="312"/>
      <point x="186" y="364"/>
      <point x="178" y="391" type="curve"/>
      <point x="149.0" y="357.0"/>
      <point x="115" y="386"/>
      <point x="115" y="411" type="curve" smooth="yes"/>
      <point x="115" y="452"/>
      <point x="166" y="480"/>
      <point x="224" y="479" type="curve" smooth="yes"/>
      <point x="342" y="477"/>
      <point x="315" y="360"/>
      <point x="315" y="289" type="curve"/>
      <point x="290" y="268"/>
      <point x="22" y="263"/>
      <point x="22" y="97" type="curve" smooth="yes"/>
      <point x="22" y="25"/>
      <point x="98" y="-21"/>
      <point x="171" y="-21" type="curve" smooth="yes"/>
      <point x="244" y="-21"/>
      <point x="315" y="5"/>
      <point x="340" y="5" type="curve" smooth="yes"/>
      <point x="364" y="5"/>
      <point x="388" y="-17"/>
      <point x="388" y="-17" type="curve"/>
      <point x="420" y="39" type="line"/>
      <point x="406" y="52"/>
      <point x="395" y="80"/>
    </contour>
    <contour>
      <point x="105" y="204"/>
      <point x="190" y="232"/>
      <point x="315" y="246" type="curve"/>
      <point x="315" y="114" type="line" smooth="yes"/>
      <point x="315" y="2"/>
      <point x="105" y="-17"/>
      <point x="105" y="105" type="curve" smooth="yes"/>
    </contour>
  </outline>
</glyph>
<glyph name="b" format="2">
  <advance width="703"/>
  <unicode hex="0062"/>
  <outline>
    <contour>
      <point x="335" y="108" type="move" smooth="yes"/>
      <point x="335" y="129"/>
      <point x="349" y="161"/>
      <point x="375" y="161" type="curve"/>
      <point x="398" y="161"/>
      <point x="418" y="141"/>
      <point x="418" y="91" type="curve" smooth="yes"/>
      <point x="418" y="71" type="line" smooth="yes"/>
      <point x="418" y="33"/>
      <point x="403" y="0"/>
      <point x="374" y="0" type="curve"/>
      <point x="341" y="0"/>
      <point x="334" y="24"/>
      <point x="328" y="37" type="curve"/>
      <point x="328" y="8" type="line"/>
      <point x="329" y="6"/>
      <point x="353" y="-5"/>
      <point x="373" y="-5" type="curve"/>
    </contour>
    <contour>
      <point x="373" y="-5" type="move"/>
      <point x="419" y="-5"/>
      <point x="455" y="32"/>
      <point x="455" y="87" type="curve" smooth="yes"/>
      <point x="455" y="133"/>
      <point x="424" y="169"/>
      <point x="385" y="169" type="curve" smooth="yes"/>
      <point x="346" y="169"/>
      <point x="332" y="135"/>
      <point x="329" y="111" type="curve"/>
      <point x="330" y="110" type="line"/>
    </contour>
    <contour>
      <point x="332" y="56" type="line" smooth="yes"/>
      <point x="332" y="249" type="line"/>
      <point x="332" y="252"/>
      <point x="333" y="258"/>
      <point x="333" y="269" type="curve"/>
      <point x="333" y="272"/>
      <point x="331" y="273"/>
      <point x="327" y="272" type="curve" smooth="yes"/>
      <point x="323" y="271"/>
      <point x="269" y="261"/>
      <point x="263" y="260" type="curve"/>
      <point x="263" y="256" type="line"/>
      <point x="267" y="256"/>
      <point x="287" y="255"/>
      <point x="294" y="250" type="curve"/>
      <point x="297" y="248"/>
      <point x="298" y="245"/>
      <point x="298" y="240" type="curve"/>
      <point x="298" y="29" type="line" smooth="yes"/>
      <point x="298.0" y="15.0"/>
      <point x="309" y="2"/>
      <point x="306" y="0" type="curve"/>
      <point x="313" y="-5"/>
      <point x="327.0" y="-1.666666666666666"/>
      <point x="327" y="5" type="curve" smooth="yes"/>
      <point x="327" y="19"/>
      <point x="327" y="39"/>
      <point x="327" y="54" type="curve"/>
      <point x="326" y="53" type="line"/>
    </contour>
  </outline>
</glyph>
<glyph name="c" format="2">
  <advance width="513"/>
  <unicode hex="0063"/>
  <outline>
    <contour>
      <point x="299" y="414"/>
      <point x="323" y="430"/>
      <point x="327" y="433" type="curve" smooth="yes"/>
      <point x="333" y="438"/>
      <point x="347" y="445"/>
      <point x="347" y="453" type="curve" smooth="yes"/>
      <point x="347" y="460"/>
      <point x="339" y="491"/>
      <point x="267" y="491" type="curve" smooth="yes"/>
      <point x="166" y="491"/>
      <point x="118" y="386"/>
      <point x="118" y="269" type="curve" smooth="yes"/>
      <point x="118" y="133"/>
      <point x="150" y="15"/>
      <point x="256" y="15" type="curve"/>
      <point x="336" y="15"/>
      <point x="376" y="76"/>
      <point x="401" y="112" type="curve" smooth="yes"/>
      <point x="417" y="135"/>
      <point x="444" y="123"/>
      <point x="425" y="96" type="curve" smooth="yes"/>
      <point x="396" y="56"/>
      <point x="327" y="-6"/>
      <point x="256" y="-6" type="curve"/>
      <point x="118" y="-6"/>
      <point x="22" y="108"/>
      <point x="22" y="263" type="curve" smooth="yes"/>
      <point x="22" y="377"/>
      <point x="115" y="511"/>
      <point x="267" y="511" type="curve" smooth="yes"/>
      <point x="359" y="511"/>
      <point x="426" y="467"/>
      <point x="426" y="381" type="curve" smooth="yes"/>
      <point x="426" y="346"/>
      <point x="398" y="317"/>
      <point x="363" y="317" type="curve" smooth="yes"/>
      <point x="328" y="317"/>
      <point x="299" y="346"/>
      <point x="299" y="381" type="curve" smooth="yes"/>
    </contour>
    <contour>
      <point x="293" y="416" type="curve" smooth="yes"/>
      <point x="313" y="416"/>
      <point x="329" y="432"/>
      <point x="329" y="452" type="curve" smooth="yes"/>
      <point x="329" y="472"/>
      <point x="313" y="489"/>
      <point x="293" y="489" type="curve" smooth="yes"/>
      <point x="273" y="489"/>
      <point x="257" y="472"/>
      <point x="257" y="452" type="curve" smooth="yes"/>
      <point x="257" y="432"/>
      <point x="273" y="416"/>
    </contour>
  </outline>
</glyph>
<glyph name="d" format="2">
  <advance width="703"/>
  <unicode hex="0064"/>
  <outline>
    <contour>
      <point x="352" y="169" type="move"/>
      <point x="306" y="170"/>
      <point x="270" y="132"/>
      <point x="270" y="77" type="curve" smooth="yes"/>
      <point x="270" y="31"/>
      <point x="301" y="-5"/>
      <point x="340" y="-5" type="curve" smooth="yes"/>
      <point x="379" y="-5"/>
      <point x="391" y="29"/>
      <point x="394" y="53" type="curve" smooth="yes"/>
      <point x="395" y="58"/>
      <point x="395" y="63"/>
      <point x="395" y="67" type="curve"/>
      <point x="394" y="61" type="line"/>
      <point x="394" y="57"/>
      <point x="395" y="58"/>
      <point x="395" y="54" type="curve" smooth="yes"/>
      <point x="395" y="39"/>
      <point x="395" y="19"/>
      <point x="395" y="5" type="curve" smooth="yes"/>
      <point x="395" y="3"/>
      <point x="398" y="0"/>
      <point x="401" y="0" type="curve" smooth="yes"/>
      <point x="405" y="0"/>
      <point x="447" y="0"/>
      <point x="452" y="0" type="curve"/>
      <point x="452" y="5" type="line"/>
      <point x="448" y="5"/>
      <point x="435" y="7"/>
      <point x="428" y="12" type="curve"/>
      <point x="425" y="14"/>
      <point x="424" y="24"/>
      <point x="424" y="29" type="curve" smooth="yes"/>
      <point x="424" y="240" type="line"/>
      <point x="424" y="243"/>
      <point x="425" y="249"/>
      <point x="425" y="260" type="curve"/>
      <point x="425" y="263"/>
      <point x="423" y="264"/>
      <point x="419" y="263" type="curve" smooth="yes"/>
      <point x="415" y="262"/>
      <point x="361" y="252"/>
      <point x="355" y="251" type="curve"/>
      <point x="355" y="247" type="line"/>
      <point x="359" y="247"/>
      <point x="379" y="246"/>
      <point x="386" y="241" type="curve"/>
      <point x="389" y="239"/>
      <point x="390.0" y="236.0"/>
      <point x="390" y="231" type="curve"/>
      <point x="390" y="56" type="line" smooth="yes"/>
      <point x="390" y="35"/>
      <point x="376" y="3"/>
      <point x="350" y="3" type="curve"/>
      <point x="327" y="3"/>
      <point x="307" y="23"/>
      <point x="307" y="73" type="curve" smooth="yes"/>
      <point x="307" y="93" type="line" smooth="yes"/>
      <point x="307" y="131"/>
      <point x="322" y="164"/>
      <point x="351" y="164" type="curve"/>
      <point x="384" y="164"/>
      <point x="391" y="140"/>
      <point x="397" y="127" type="curve"/>
      <point x="397" y="156" type="line"/>
      <point x="396" y="158"/>
      <point x="372" y="169"/>
      <point x="352" y="169" type="curve"/>
    </contour>
  </outline>
</glyph>
<glyph name="f" format="2">
  <advance width="395"/>
  <unicode hex="0066"/>
  <guideline x="208" y="560" angle="90" identifier="LtzwKcXfp1"/>
  <guideline x="27" y="86" angle="90" identifier="Y3pUEtt51c"/>
  <outline>
    <contour>
      <point x="314.0" y="478" type="line"/>
      <point x="27.0" y="478" type="line"/>
      <point x="27.0" y="453" type="line"/>
      <point x="314.0" y="453" type="line"/>
    </contour>
    <contour>
      <point x="235" y="734" type="curve" smooth="yes"/>
      <point x="266" y="734"/>
      <point x="268" y="646"/>
      <point x="235" y="646" type="curve"/>
      <point x="235" y="619"/>
      <point x="253" y="602"/>
      <point x="284" y="602" type="curve" smooth="yes"/>
      <point x="325.0" y="602.0"/>
      <point x="359" y="636"/>
      <point x="359" y="677" type="curve" smooth="yes"/>
      <point x="359" y="718"/>
      <point x="325" y="752"/>
      <point x="264" y="752" type="curve" smooth="yes"/>
      <point x="128" y="752"/>
      <point x="113.0" y="676.0"/>
      <point x="113" y="490" type="curve"/>
      <point x="113" y="87" type="line" smooth="yes"/>
      <point x="113" y="52"/>
      <point x="105" y="35"/>
      <point x="79" y="28" type="curve" smooth="yes"/>
      <point x="27" y="14" type="line"/>
      <point x="27" y="0" type="line"/>
      <point x="314" y="0" type="line"/>
      <point x="314" y="14" type="line"/>
      <point x="242" y="28" type="line" smooth="yes"/>
      <point x="217" y="33"/>
      <point x="208" y="52"/>
      <point x="208" y="87" type="curve" smooth="yes"/>
      <point x="208" y="490" type="line"/>
      <point x="208" y="578"/>
      <point x="174" y="734"/>
    </contour>
  </outline>
</glyph>
<glyph name="g" format="2">
  <advance width="537"/>
  <unicode hex="0067"/>
  <outline>
    <contour>
      <point x="335" y="487" type="curve"/>
      <point x="381" y="454" type="line"/>
      <point x="373" y="476"/>
      <point x="471" y="467"/>
      <point x="471" y="538" type="curve" smooth="yes"/>
      <point x="471" y="567"/>
      <point x="451" y="590"/>
      <point x="419" y="590" type="curve" smooth="yes"/>
      <point x="367" y="590"/>
      <point x="370" y="537"/>
      <point x="370" y="537" type="curve"/>
      <point x="393" y="544"/>
      <point x="407" y="535"/>
      <point x="407" y="517" type="curve" smooth="yes"/>
      <point x="407" y="489"/>
      <point x="367" y="474"/>
    </contour>
    <contour>
      <point x="252" y="182" type="curve"/>
      <point x="183" y="182"/>
      <point x="153" y="243"/>
      <point x="153" y="336" type="curve" smooth="yes"/>
      <point x="153" y="417"/>
      <point x="180" y="492"/>
      <point x="249" y="492" type="curve"/>
      <point x="312" y="492"/>
      <point x="345" y="417"/>
      <point x="345" y="336" type="curve" smooth="yes"/>
      <point x="345" y="243"/>
      <point x="309" y="182"/>
    </contour>
    <contour>
      <point x="252" y="168" type="curve"/>
      <point x="339" y="168"/>
      <point x="438" y="231"/>
      <point x="438" y="336" type="curve" smooth="yes"/>
      <point x="438" y="429"/>
      <point x="360" y="504"/>
      <point x="249" y="504" type="curve"/>
      <point x="132" y="504"/>
      <point x="60" y="429"/>
      <point x="60" y="336" type="curve" smooth="yes"/>
      <point x="60" y="231"/>
      <point x="159" y="168"/>
    </contour>
    <contour>
      <point x="252" y="182" type="move"/>
      <point x="179" y="182"/>
      <point x="84" y="165"/>
      <point x="84.0" y="90" type="curve" smooth="yes"/>
      <point x="84" y="19"/>
      <point x="204" y="-11"/>
      <point x="295" y="-11" type="curve"/>
      <point x="491" y="-11"/>
      <point x="447" y="-183"/>
      <point x="283" y="-185" type="curve"/>
      <point x="47" y="-188"/>
      <point x="105" y="-31"/>
      <point x="177" y="-78" type="curve"/>
      <point x="204" y="-31"/>
      <point x="160" y="17"/>
      <point x="106" y="17" type="curve" smooth="yes"/>
      <point x="64" y="17"/>
      <point x="35" y="-20"/>
      <point x="35" y="-72" type="curve" smooth="yes"/>
      <point x="35" y="-150"/>
      <point x="130" y="-216"/>
      <point x="276" y="-216.0" type="curve" smooth="yes"/>
      <point x="438" y="-216"/>
      <point x="505" y="-132"/>
      <point x="505" y="-44" type="curve" smooth="yes"/>
      <point x="505" y="40"/>
      <point x="439" y="108"/>
      <point x="279" y="108" type="curve" smooth="yes"/>
      <point x="115" y="108"/>
      <point x="194" y="171"/>
      <point x="286" y="171" type="curve"/>
    </contour>
  </outline>
</glyph>
<glyph name="h" format="2">
  <advance width="632"/>
  <unicode hex="0068"/>
  <outline>
    <contour>
      <point x="530" y="87" type="curve" smooth="yes"/>
      <point x="530" y="324" type="line" smooth="yes"/>
      <point x="530" y="447"/>
      <point x="483" y="507"/>
      <point x="378" y="507" type="curve" smooth="yes"/>
      <point x="249" y="507"/>
      <point x="192" y="357"/>
      <point x="192" y="307" type="curve"/>
      <point x="202" y="338" type="line"/>
      <point x="202" y="349"/>
      <point x="213" y="423"/>
      <point x="213" y="500" type="curve" smooth="yes"/>
      <point x="213.0" y="593"/>
      <point x="213" y="693"/>
      <point x="213" y="703" type="curve" smooth="yes"/>
      <point x="213" y="719"/>
      <point x="213" y="715"/>
      <point x="213" y="735" type="curve" smooth="yes"/>
      <point x="213" y="748"/>
      <point x="199" y="751"/>
      <point x="188" y="749" type="curve" smooth="yes"/>
      <point x="175" y="745"/>
      <point x="34" y="710"/>
      <point x="19" y="708" type="curve"/>
      <point x="19" y="695" type="line"/>
      <point x="39" y="693"/>
      <point x="118" y="693"/>
      <point x="118" y="645" type="curve" smooth="yes"/>
      <point x="118" y="87" type="line" smooth="yes"/>
      <point x="118" y="52"/>
      <point x="110" y="35"/>
      <point x="84" y="28" type="curve" smooth="yes"/>
      <point x="32" y="14" type="line"/>
      <point x="32" y="0" type="line"/>
      <point x="299" y="0" type="line"/>
      <point x="299" y="14" type="line"/>
      <point x="247" y="28" type="line" smooth="yes"/>
      <point x="222" y="35"/>
      <point x="213" y="52"/>
      <point x="213" y="87" type="curve" smooth="yes"/>
      <point x="213" y="258" type="line"/>
      <point x="213" y="366"/>
      <point x="263" y="477"/>
      <point x="354" y="477" type="curve" smooth="yes"/>
      <point x="407" y="477"/>
      <point x="435" y="446"/>
      <point x="435" y="350" type="curve" smooth="yes"/>
      <point x="435" y="87" type="line" smooth="yes"/>
      <point x="435" y="52"/>
      <point x="427" y="35"/>
      <point x="401" y="28" type="curve" smooth="yes"/>
      <point x="349" y="14" type="line"/>
      <point x="349" y="0" type="line"/>
      <point x="616" y="0" type="line"/>
      <point x="616" y="14" type="line"/>
      <point x="564" y="28" type="line" smooth="yes"/>
      <point x="539" y="35"/>
      <point x="530" y="52"/>
    </contour>
  </outline>
</glyph>
<glyph name="i" format="2">
  <advance width="302"/>
  <unicode hex="0069"/>
  <outline>
    <contour>
      <point x="290" y="14" type="line"/>
      <point x="238" y="28" type="line" smooth="yes"/>
      <point x="213" y="35"/>
      <point x="204" y="52"/>
      <point x="204" y="87" type="curve" smooth="yes"/>
      <point x="204" y="490" type="line" smooth="yes"/>
      <point x="204" y="503"/>
      <point x="190" y="506"/>
      <point x="179" y="504" type="curve" smooth="yes"/>
      <point x="166" y="500"/>
      <point x="25" y="465"/>
      <point x="10" y="463" type="curve"/>
      <point x="10" y="450" type="line"/>
      <point x="30" y="448"/>
      <point x="109" y="448"/>
      <point x="109" y="400" type="curve" smooth="yes"/>
      <point x="109" y="87" type="line" smooth="yes"/>
      <point x="109" y="52"/>
      <point x="101" y="35"/>
      <point x="75" y="28" type="curve" smooth="yes"/>
      <point x="23" y="14" type="line"/>
      <point x="23" y="0" type="line"/>
      <point x="290" y="0" type="line"/>
    </contour>
    <contour>
      <point x="140.0" y="549" type="curve" smooth="yes"/>
      <point x="180" y="549"/>
      <point x="205" y="578"/>
      <point x="205" y="618" type="curve" smooth="yes"/>
      <point x="205" y="658"/>
      <point x="180" y="683"/>
      <point x="140.0" y="683" type="curve" smooth="yes"/>
      <point x="100" y="683"/>
      <point x="75" y="658"/>
      <point x="75" y="618" type="curve" smooth="yes"/>
      <point x="75" y="578"/>
      <point x="100" y="549"/>
    </contour>
  </outline>
</glyph>
<glyph name="m" format="2">
  <advance width="632"/>
  <unicode hex="006D"/>
  <outline>
    <contour>
      <point x="530" y="87" type="curve" smooth="yes"/>
      <point x="530" y="321" type="line" smooth="yes"/>
      <point x="530.0" y="455.0"/>
      <point x="486" y="504"/>
      <point x="372" y="504" type="curve" smooth="yes"/>
      <point x="243" y="504"/>
      <point x="191" y="375"/>
      <point x="191" y="255" type="curve"/>
      <point x="213" y="335" type="line"/>
      <point x="213.0" y="380"/>
      <point x="213.0" y="443"/>
      <point x="213" y="485" type="curve" smooth="yes"/>
      <point x="213" y="498"/>
      <point x="199" y="501"/>
      <point x="188" y="499" type="curve" smooth="yes"/>
      <point x="175" y="495"/>
      <point x="34" y="460"/>
      <point x="19" y="458" type="curve"/>
      <point x="19" y="445" type="line"/>
      <point x="39" y="443"/>
      <point x="118.0" y="443.0"/>
      <point x="118" y="395" type="curve" smooth="yes"/>
      <point x="118" y="87" type="line" smooth="yes"/>
      <point x="118" y="52"/>
      <point x="110" y="35"/>
      <point x="84" y="28" type="curve" smooth="yes"/>
      <point x="32" y="14" type="line"/>
      <point x="32" y="0" type="line"/>
      <point x="299" y="0" type="line"/>
      <point x="299" y="14" type="line"/>
      <point x="247" y="28" type="line" smooth="yes"/>
      <point x="222" y="35"/>
      <point x="213" y="52"/>
      <point x="213" y="87" type="curve" smooth="yes"/>
      <point x="213" y="255" type="line"/>
      <point x="213" y="363"/>
      <point x="259" y="474"/>
      <point x="349" y="474" type="curve" smooth="yes"/>
      <point x="409" y="474"/>
      <point x="435.0" y="445.0"/>
      <point x="435" y="347" type="curve" smooth="yes"/>
      <point x="435" y="87" type="line" smooth="yes"/>
      <point x="435" y="52"/>
      <point x="427" y="35"/>
      <point x="401" y="28" type="curve" smooth="yes"/>
      <point x="349" y="14" type="line"/>
      <point x="349" y="0" type="line"/>
      <point x="616" y="0" type="line"/>
      <point x="616" y="14" type="line"/>
      <point x="564" y="28" type="line" smooth="yes"/>
      <point x="539" y="35"/>
      <point x="530" y="52"/>
    </contour>
    <contour>
      <point x="1130" y="87" type="curve" smooth="yes"/>
      <point x="1130" y="321" type="line" smooth="yes"/>
      <point x="1130.0" y="455.0"/>
      <point x="1086" y="504"/>
      <point x="972" y="504" type="curve" smooth="yes"/>
      <point x="843" y="504"/>
      <point x="791" y="375"/>
      <point x="791" y="255" type="curve"/>
      <point x="813" y="335" type="line"/>
      <point x="813.0" y="380"/>
      <point x="813.0" y="443"/>
      <point x="813" y="485" type="curve" smooth="yes"/>
      <point x="813" y="498"/>
      <point x="799" y="501"/>
      <point x="788" y="499" type="curve" smooth="yes"/>
      <point x="775" y="495"/>
      <point x="634" y="460"/>
      <point x="619" y="458" type="curve"/>
      <point x="619" y="445" type="line"/>
      <point x="639" y="443"/>
      <point x="718.0" y="443.0"/>
      <point x="718" y="395" type="curve" smooth="yes"/>
      <point x="718" y="87" type="line" smooth="yes"/>
      <point x="718" y="52"/>
      <point x="710" y="35"/>
      <point x="684" y="28" type="curve" smooth="yes"/>
      <point x="632" y="14" type="line"/>
      <point x="632" y="0" type="line"/>
      <point x="899" y="0" type="line"/>
      <point x="899" y="14" type="line"/>
      <point x="847" y="28" type="line" smooth="yes"/>
      <point x="822" y="35"/>
      <point x="813" y="52"/>
      <point x="813" y="87" type="curve" smooth="yes"/>
      <point x="813" y="255" type="line"/>
      <point x="813" y="363"/>
      <point x="859" y="474"/>
      <point x="949" y="474" type="curve" smooth="yes"/>
      <point x="1009" y="474"/>
      <point x="1035.0" y="445.0"/>
      <point x="1035" y="347" type="curve" smooth="yes"/>
      <point x="1035" y="87" type="line" smooth="yes"/>
      <point x="1035" y="52"/>
      <point x="1027" y="35"/>
      <point x="1001" y="28" type="curve" smooth="yes"/>
      <point x="949" y="14" type="line"/>
      <point x="949" y="0" type="line"/>
      <point x="1216" y="0" type="line"/>
      <point x="1216" y="14" type="line"/>
      <point x="1164" y="28" type="line" smooth="yes"/>
      <point x="1139" y="35"/>
      <point x="1130" y="52"/>
    </contour>
  </outline>
</glyph>
<glyph name="n" format="2">
  <advance width="653"/>
  <unicode hex="006E"/>
  <outline>
    <contour>
      <point x="539" y="87" type="curve" smooth="yes"/>
      <point x="539" y="324" type="line" smooth="yes"/>
      <point x="539" y="432"/>
      <point x="502" y="507"/>
      <point x="389" y="507" type="curve" smooth="yes"/>
      <point x="265" y="507"/>
      <point x="206" y="396"/>
      <point x="206" y="313" type="curve"/>
      <point x="212" y="338" type="line"/>
      <point x="212" y="362"/>
      <point x="212" y="432"/>
      <point x="212" y="438" type="curve"/>
      <point x="212" y="449"/>
      <point x="214" y="468"/>
      <point x="214" y="499" type="curve" smooth="yes"/>
      <point x="214" y="509"/>
      <point x="210" y="511"/>
      <point x="199" y="509" type="curve" smooth="yes"/>
      <point x="186" y="505"/>
      <point x="45" y="470"/>
      <point x="30" y="468" type="curve"/>
      <point x="30" y="455" type="line"/>
      <point x="50" y="453"/>
      <point x="129" y="453"/>
      <point x="129" y="405" type="curve" smooth="yes"/>
      <point x="129" y="87" type="line" smooth="yes"/>
      <point x="129" y="52"/>
      <point x="121" y="35"/>
      <point x="95" y="28" type="curve" smooth="yes"/>
      <point x="43" y="14" type="line"/>
      <point x="43" y="0" type="line"/>
      <point x="310" y="0" type="line"/>
      <point x="310" y="14" type="line"/>
      <point x="258" y="28" type="line" smooth="yes"/>
      <point x="233" y="35"/>
      <point x="224" y="52"/>
      <point x="224" y="87" type="curve" smooth="yes"/>
      <point x="224" y="258" type="line"/>
      <point x="224" y="366"/>
      <point x="274" y="477"/>
      <point x="365" y="477" type="curve"/>
      <point x="416" y="477"/>
      <point x="444" y="430"/>
      <point x="444" y="342" type="curve" smooth="yes"/>
      <point x="444" y="87" type="line" smooth="yes"/>
      <point x="444" y="52"/>
      <point x="436" y="35"/>
      <point x="410" y="28" type="curve" smooth="yes"/>
      <point x="358" y="14" type="line"/>
      <point x="358" y="0" type="line"/>
      <point x="625" y="0" type="line"/>
      <point x="625" y="14" type="line"/>
      <point x="573" y="28" type="line" smooth="yes"/>
      <point x="548" y="35"/>
      <point x="539" y="52"/>
    </contour>
  </outline>
</glyph>
<glyph name="o" format="2">
  <advance width="513"/>
  <unicode hex="006F"/>
  <outline>
    <contour>
      <point x="256" y="12" type="curve"/>
      <point x="150" y="12"/>
      <point x="118" y="130"/>
      <point x="118" y="266" type="curve" smooth="yes"/>
      <point x="118" y="383"/>
      <point x="155" y="488"/>
      <point x="256" y="488" type="curve"/>
      <point x="358" y="488"/>
      <point x="394" y="383"/>
      <point x="394" y="266" type="curve" smooth="yes"/>
      <point x="394" y="130"/>
      <point x="362" y="12"/>
    </contour>
    <contour>
      <point x="256" y="508" type="curve"/>
      <point x="104" y="508"/>
      <point x="22" y="374"/>
      <point x="22" y="260" type="curve" smooth="yes"/>
      <point x="22" y="105"/>
      <point x="118" y="-9"/>
      <point x="256" y="-9" type="curve"/>
      <point x="395" y="-9"/>
      <point x="491" y="105"/>
      <point x="491" y="260" type="curve" smooth="yes"/>
      <point x="491" y="374"/>
      <point x="408" y="508"/>
    </contour>
  </outline>
</glyph>
<glyph name="p" format="2">
  <advance width="586"/>
  <unicode hex="0070"/>
  <guideline x="-172" y="198" angle="90" identifier="Zx5BQEKnxh"/>
  <guideline x="-91" y="261" angle="0" identifier="NaLxNGAEsM"/>
  <outline>
    <contour>
      <point x="199" y="339" type="line"/>
      <point x="199" y="363"/>
      <point x="210" y="446"/>
      <point x="210" y="464" type="curve" smooth="yes"/>
      <point x="210" y="480"/>
      <point x="210" y="476"/>
      <point x="210" y="496" type="curve" smooth="yes"/>
      <point x="210" y="509"/>
      <point x="196" y="512"/>
      <point x="185" y="510" type="curve" smooth="yes"/>
      <point x="172" y="506"/>
      <point x="31" y="471"/>
      <point x="16" y="469" type="curve"/>
      <point x="16" y="456" type="line"/>
      <point x="36" y="454"/>
      <point x="115" y="454"/>
      <point x="115" y="406" type="curve"/>
      <point x="115" y="-129" type="line" smooth="yes"/>
      <point x="115" y="-164"/>
      <point x="107" y="-181"/>
      <point x="81" y="-188" type="curve" smooth="yes"/>
      <point x="29" y="-202" type="line"/>
      <point x="29" y="-216" type="line"/>
      <point x="296" y="-216" type="line"/>
      <point x="296" y="-202" type="line"/>
      <point x="244" y="-188" type="line" smooth="yes"/>
      <point x="219" y="-181"/>
      <point x="210" y="-164"/>
      <point x="210" y="-129" type="curve" smooth="yes"/>
      <point x="210" y="82" type="line"/>
    </contour>
    <contour>
      <point x="198" y="58" type="curve"/>
      <point x="237" y="15"/>
      <point x="280" y="-9"/>
      <point x="355" y="-9" type="curve" smooth="yes"/>
      <point x="494" y="-9"/>
      <point x="567" y="99"/>
      <point x="567" y="260" type="curve" smooth="yes"/>
      <point x="567" y="383"/>
      <point x="507" y="508"/>
      <point x="356" y="508" type="curve" smooth="yes"/>
      <point x="262" y="508"/>
      <point x="196" y="400"/>
      <point x="196" y="344" type="curve"/>
      <point x="196" y="344"/>
      <point x="198" y="58"/>
    </contour>
    <contour>
      <point x="210" y="205" type="curve" smooth="yes"/>
      <point x="210" y="340"/>
      <point x="276" y="488"/>
      <point x="355" y="488" type="curve" smooth="yes"/>
      <point x="458" y="488"/>
      <point x="471" y="398"/>
      <point x="471" y="265" type="curve" smooth="yes"/>
      <point x="471" y="107"/>
      <point x="461" y="12"/>
      <point x="355" y="12" type="curve" smooth="yes"/>
      <point x="283" y="12"/>
      <point x="210" y="7"/>
    </contour>
    <contour>
      <point x="176" y="56" type="move"/>
    </contour>
  </outline>
</glyph>
<glyph name="r" format="2">
  <advance width="703"/>
  <unicode hex="0072"/>
  <outline>
    <contour>
      <point x="306" y="5" type="move"/>
      <point x="306" y="0" type="line"/>
    </contour>
    <contour>
      <point x="457" y="124" type="curve" smooth="yes"/>
      <point x="445" y="116"/>
      <point x="420" y="121"/>
      <point x="430" y="132" type="curve"/>
      <point x="421" y="134"/>
      <point x="416" y="137"/>
      <point x="406" y="142" type="curve"/>
      <point x="379" y="111" type="line"/>
      <point x="379" y="21" type="line" smooth="yes"/>
      <point x="379" y="17"/>
      <point x="380" y="12"/>
      <point x="391" y="9" type="curve" smooth="yes"/>
      <point x="397" y="7"/>
      <point x="412" y="5"/>
      <point x="412" y="5" type="curve"/>
      <point x="412" y="0" type="line"/>
      <point x="317" y="0" type="line"/>
      <point x="317" y="5" type="line"/>
      <point x="317" y="5"/>
      <point x="331" y="6"/>
      <point x="337" y="9" type="curve" smooth="yes"/>
      <point x="345" y="12"/>
      <point x="345" y="18"/>
      <point x="345" y="21" type="curve" smooth="yes"/>
      <point x="345" y="136" type="line" smooth="yes"/>
      <point x="345" y="141"/>
      <point x="344" y="144"/>
      <point x="341" y="146" type="curve"/>
      <point x="334" y="151"/>
      <point x="316" y="152"/>
      <point x="312" y="152" type="curve"/>
      <point x="312" y="156" type="line"/>
      <point x="318" y="157"/>
      <point x="366" y="169"/>
      <point x="370" y="170" type="curve" smooth="yes"/>
      <point x="374" y="171"/>
      <point x="376" y="170"/>
      <point x="376" y="167" type="curve"/>
      <point x="376" y="156"/>
      <point x="375" y="150"/>
      <point x="375" y="147" type="curve"/>
      <point x="375" y="145"/>
      <point x="375" y="111"/>
      <point x="375" y="103" type="curve"/>
      <point x="365" y="103" type="line"/>
      <point x="373" y="125"/>
      <point x="384" y="169"/>
      <point x="400" y="170" type="curve"/>
      <point x="449" y="172"/>
      <point x="487.8923015197004" y="146.31110665311698"/>
    </contour>
  </outline>
</glyph>
<glyph name="t" format="2">
  <advance width="302"/>
  <unicode hex="0074"/>
  <outline>
    <contour>
      <point x="300" y="459" type="line"/>
      <point x="10" y="459" type="line"/>
      <point x="10" y="459" type="line"/>
      <point x="84" y="439" type="line"/>
      <point x="297" y="439" type="line"/>
    </contour>
    <contour>
      <point x="278" y="80" type="line"/>
      <point x="278" y="52"/>
      <point x="204.0" y="20.0"/>
      <point x="204" y="93" type="curve" smooth="yes"/>
      <point x="204" y="570" type="line" smooth="yes"/>
      <point x="204.0" y="576.0"/>
      <point x="185" y="584"/>
      <point x="179" y="584" type="curve" smooth="yes"/>
      <point x="173" y="584"/>
      <point x="167" y="515"/>
      <point x="130" y="487" type="curve" smooth="yes"/>
      <point x="90" y="456"/>
      <point x="18" y="464"/>
      <point x="10" y="463" type="curve"/>
      <point x="10" y="447" type="line"/>
      <point x="30" y="445"/>
      <point x="109" y="445"/>
      <point x="109" y="397" type="curve" smooth="yes"/>
      <point x="109" y="87" type="line"/>
      <point x="109" y="-49"/>
      <point x="293" y="-13"/>
      <point x="293" y="75" type="curve"/>
    </contour>
  </outline>
</glyph>
<glyph name="u" format="2">
  <advance width="644"/>
  <unicode hex="0075"/>
  <guideline x="429" y="151" angle="90" identifier="296fJtTTQ6"/>
  <outline>
    <contour>
      <point x="524" y="500" type="line"/>
      <point x="343" y="500" type="line"/>
      <point x="343" y="487" type="line"/>
      <point x="395" y="473" type="line" smooth="yes"/>
      <point x="420" y="466"/>
      <point x="429" y="449"/>
      <point x="429" y="414" type="curve" smooth="yes"/>
      <point x="429" y="243" type="line"/>
      <point x="429" y="135"/>
      <point x="379" y="24"/>
      <point x="288" y="24" type="curve" smooth="yes"/>
      <point x="239" y="24"/>
      <point x="207" y="67.0"/>
      <point x="207" y="151" type="curve" smooth="yes"/>
      <point x="207" y="500" type="line"/>
      <point x="26" y="500" type="line"/>
      <point x="26" y="487" type="line"/>
      <point x="78" y="473" type="line" smooth="yes"/>
      <point x="103" y="466"/>
      <point x="112" y="449"/>
      <point x="112" y="414" type="curve" smooth="yes"/>
      <point x="112" y="177" type="line" smooth="yes"/>
      <point x="112" y="54"/>
      <point x="159" y="-6"/>
      <point x="264" y="-6" type="curve" smooth="yes"/>
      <point x="388" y="-6"/>
      <point x="447" y="105"/>
      <point x="447" y="188" type="curve"/>
      <point x="440" y="163" type="line"/>
      <point x="440" y="139"/>
      <point x="440" y="64"/>
      <point x="440" y="46" type="curve" smooth="yes"/>
      <point x="440" y="30"/>
      <point x="440" y="34"/>
      <point x="440" y="14" type="curve" smooth="yes"/>
      <point x="440" y="1"/>
      <point x="454" y="0"/>
      <point x="465" y="0" type="curve" smooth="yes"/>
      <point x="609" y="0" type="line"/>
      <point x="609" y="13" type="line"/>
      <point x="552" y="13"/>
      <point x="524.0" y="46.0"/>
      <point x="524" y="96" type="curve" smooth="yes"/>
    </contour>
  </outline>
</glyph>
